<svg width="28" height="28" viewBox="0 0 28 28" fill="none" xmlns="http://www.w3.org/2000/svg">
<mask id="mask0_474_5103" style="mask-type:luminance" maskUnits="userSpaceOnUse" x="0" y="3" width="19" height="20">
<path d="M0.046875 13.1661C0.046875 18.32 4.22314 22.4963 9.37704 22.4963C14.5309 22.4963 18.7072 18.32 18.7072 13.1661C18.7072 8.01221 14.5309 3.83594 9.37704 3.83594C4.22314 3.83594 0.046875 8.01221 0.046875 13.1661Z" fill="white"/>
</mask>
<g mask="url(#mask0_474_5103)">
<path d="M18.6977 3.84375H0.046875V22.4946H18.6977V3.84375Z" fill="url(#paint0_linear_474_5103)"/>
</g>
<mask id="mask1_474_5103" style="mask-type:luminance" maskUnits="userSpaceOnUse" x="0" y="2" width="28" height="25">
<path d="M27.952 2H0.046875V26.9817H27.952V2Z" fill="white"/>
</mask>
<g mask="url(#mask1_474_5103)">
<path d="M27.583 19.8363C27.583 23.7848 24.3844 26.9929 20.4264 26.9929C16.4685 26.9929 13.2793 23.7943 13.2793 19.8363C13.2793 15.8783 16.4779 12.6797 20.4264 12.6797C24.3749 12.6797 27.583 15.8783 27.583 19.8363Z" fill="#D2E3FF"/>
</g>
<mask id="mask2_474_5103" style="mask-type:luminance" maskUnits="userSpaceOnUse" x="19" y="2" width="9" height="9">
<path d="M23.5473 2.01172C23.4713 2.0307 23.4429 2.09714 23.4144 2.16358C23.0347 2.95138 22.8354 4.19477 22.2659 4.84019C21.6489 5.53307 20.3012 5.77985 19.4469 6.15002C19.2476 6.23545 19.1622 6.36833 19.3615 6.52019C20.0544 6.82392 20.8517 7.02324 21.5351 7.33646C22.8354 7.92494 22.8544 9.43409 23.4144 10.5636C23.4998 10.7439 23.6612 10.7534 23.7751 10.5826C24.0598 9.90867 24.2591 9.15884 24.5439 8.49443C25.1323 7.12765 26.5466 7.10867 27.7425 6.55816C27.9513 6.46324 28.0367 6.33985 27.8279 6.16901C26.6605 5.62799 25.1703 5.57104 24.5723 4.2707C24.2591 3.58731 24.0693 2.80901 23.7751 2.12562C23.7371 2.04968 23.6706 2.01172 23.5947 2.01172C23.5188 2.01172 23.5662 2.01172 23.5473 2.01172Z" fill="white"/>
</mask>
<g mask="url(#mask2_474_5103)">
<path d="M28.0465 2.00195H19.1719V10.7436H28.0465V2.00195Z" fill="url(#paint1_linear_474_5103)"/>
</g>
<defs>
<linearGradient id="paint0_linear_474_5103" x1="0.0231462" y1="11.3753" x2="18.5791" y2="11.3753" gradientUnits="userSpaceOnUse">
<stop stop-color="#609BBF"/>
<stop offset="1" stop-color="#CAB6F2"/>
</linearGradient>
<linearGradient id="paint1_linear_474_5103" x1="19.1852" y1="6.9926" x2="28.018" y2="6.9926" gradientUnits="userSpaceOnUse">
<stop stop-color="#609BBF"/>
<stop offset="1" stop-color="#CAB6F2"/>
</linearGradient>
</defs>
</svg>
