<svg width="24" height="24" viewBox="0 0 24 24" fill="none" xmlns="http://www.w3.org/2000/svg">
<path d="M15.75 13.5C17.1476 13.5 18.319 14.4565 18.6523 15.75H20.25C20.6642 15.75 21 16.0858 21 16.5C21 16.9142 20.6642 17.25 20.25 17.25H18.6523C18.319 18.5435 17.1476 19.5 15.75 19.5C14.3524 19.5 13.181 18.5435 12.8477 17.25H3.75C3.33579 17.25 3 16.9142 3 16.5C3 16.0858 3.33579 15.75 3.75 15.75H12.8477C13.181 14.4565 14.3524 13.5 15.75 13.5ZM15.75 15C14.9216 15 14.25 15.6716 14.25 16.5C14.25 17.3284 14.9216 18 15.75 18C16.5784 18 17.25 17.3284 17.25 16.5C17.25 15.6716 16.5784 15 15.75 15ZM9.75 4.5C11.1476 4.5 12.319 5.45646 12.6523 6.75H20.25C20.6642 6.75 21 7.08579 21 7.5C21 7.91421 20.6642 8.25 20.25 8.25H12.6523C12.319 9.54354 11.1476 10.5 9.75 10.5C8.35239 10.5 7.18095 9.54354 6.84766 8.25H3.75C3.33579 8.25 3 7.91421 3 7.5C3 7.08579 3.33579 6.75 3.75 6.75H6.84766C7.18095 5.45646 8.35239 4.5 9.75 4.5ZM9.75 6C8.92157 6 8.25 6.67157 8.25 7.5C8.25 8.32843 8.92157 9 9.75 9C10.5784 9 11.25 8.32843 11.25 7.5C11.25 6.67157 10.5784 6 9.75 6Z" fill="black"/>
</svg>
